<mxfile host="app.diagrams.net" modified="2024-05-22T12:42:05.651Z" agent="Mozilla/5.0 (Windows NT 10.0; Win64; x64) AppleWebKit/537.36 (KHTML, like Gecko) Chrome/121.0.0.0 Safari/537.36" etag="DG1gYuts-VEzxuz37e-Q" version="24.4.6" type="device">
  <diagram name="Página-1" id="Dq87rdSpJrZvdUK0JQJ7">
    <mxGraphModel dx="1434" dy="1951" grid="1" gridSize="10" guides="1" tooltips="1" connect="1" arrows="1" fold="1" page="1" pageScale="1" pageWidth="827" pageHeight="1169" math="0" shadow="0">
      <root>
        <mxCell id="0" />
        <mxCell id="1" parent="0" />
        <mxCell id="iWvtweeKXFTA9S-Jjv0f-59" style="edgeStyle=orthogonalEdgeStyle;rounded=0;orthogonalLoop=1;jettySize=auto;html=1;exitX=1;exitY=0.5;exitDx=0;exitDy=0;entryX=0;entryY=0.5;entryDx=0;entryDy=0;" edge="1" parent="1" source="iWvtweeKXFTA9S-Jjv0f-1" target="iWvtweeKXFTA9S-Jjv0f-56">
          <mxGeometry relative="1" as="geometry" />
        </mxCell>
        <mxCell id="iWvtweeKXFTA9S-Jjv0f-1" value="inicio" style="ellipse;whiteSpace=wrap;html=1;" vertex="1" parent="1">
          <mxGeometry x="140" y="1460" width="120" height="80" as="geometry" />
        </mxCell>
        <mxCell id="iWvtweeKXFTA9S-Jjv0f-16" style="edgeStyle=orthogonalEdgeStyle;rounded=0;orthogonalLoop=1;jettySize=auto;html=1;exitX=1;exitY=0.5;exitDx=0;exitDy=0;entryX=0;entryY=0.75;entryDx=0;entryDy=0;" edge="1" parent="1" source="iWvtweeKXFTA9S-Jjv0f-9" target="iWvtweeKXFTA9S-Jjv0f-15">
          <mxGeometry relative="1" as="geometry" />
        </mxCell>
        <mxCell id="iWvtweeKXFTA9S-Jjv0f-17" value="sim" style="edgeLabel;html=1;align=center;verticalAlign=middle;resizable=0;points=[];" vertex="1" connectable="0" parent="iWvtweeKXFTA9S-Jjv0f-16">
          <mxGeometry x="-0.2513" y="1" relative="1" as="geometry">
            <mxPoint as="offset" />
          </mxGeometry>
        </mxCell>
        <mxCell id="iWvtweeKXFTA9S-Jjv0f-47" style="edgeStyle=orthogonalEdgeStyle;rounded=0;orthogonalLoop=1;jettySize=auto;html=1;exitX=0.5;exitY=1;exitDx=0;exitDy=0;" edge="1" parent="1" source="iWvtweeKXFTA9S-Jjv0f-9" target="iWvtweeKXFTA9S-Jjv0f-48">
          <mxGeometry relative="1" as="geometry">
            <mxPoint x="330" y="2110" as="targetPoint" />
          </mxGeometry>
        </mxCell>
        <mxCell id="iWvtweeKXFTA9S-Jjv0f-49" value="não" style="edgeLabel;html=1;align=center;verticalAlign=middle;resizable=0;points=[];" vertex="1" connectable="0" parent="iWvtweeKXFTA9S-Jjv0f-47">
          <mxGeometry x="-0.28" relative="1" as="geometry">
            <mxPoint as="offset" />
          </mxGeometry>
        </mxCell>
        <mxCell id="iWvtweeKXFTA9S-Jjv0f-9" value="vai adicionar valor(s)?" style="rhombus;whiteSpace=wrap;html=1;" vertex="1" parent="1">
          <mxGeometry x="260" y="1986" width="140" height="74" as="geometry" />
        </mxCell>
        <mxCell id="iWvtweeKXFTA9S-Jjv0f-76" value="" style="edgeStyle=orthogonalEdgeStyle;rounded=0;orthogonalLoop=1;jettySize=auto;html=1;" edge="1" parent="1" source="iWvtweeKXFTA9S-Jjv0f-15" target="iWvtweeKXFTA9S-Jjv0f-72">
          <mxGeometry relative="1" as="geometry" />
        </mxCell>
        <mxCell id="iWvtweeKXFTA9S-Jjv0f-15" value="adicionamento de ganhos." style="shape=manualInput;whiteSpace=wrap;html=1;" vertex="1" parent="1">
          <mxGeometry x="480" y="1940" width="130" height="110" as="geometry" />
        </mxCell>
        <mxCell id="iWvtweeKXFTA9S-Jjv0f-18" style="edgeStyle=orthogonalEdgeStyle;rounded=0;orthogonalLoop=1;jettySize=auto;html=1;exitX=0.5;exitY=1;exitDx=0;exitDy=0;entryX=0.5;entryY=0;entryDx=0;entryDy=0;" edge="1" parent="1" target="iWvtweeKXFTA9S-Jjv0f-54">
          <mxGeometry relative="1" as="geometry">
            <mxPoint x="200" y="1582" as="targetPoint" />
            <mxPoint x="200" y="1540" as="sourcePoint" />
          </mxGeometry>
        </mxCell>
        <mxCell id="iWvtweeKXFTA9S-Jjv0f-53" style="edgeStyle=orthogonalEdgeStyle;rounded=0;orthogonalLoop=1;jettySize=auto;html=1;exitX=0.5;exitY=1;exitDx=0;exitDy=0;entryX=0.5;entryY=0;entryDx=0;entryDy=0;" edge="1" parent="1" source="iWvtweeKXFTA9S-Jjv0f-54" target="iWvtweeKXFTA9S-Jjv0f-22">
          <mxGeometry relative="1" as="geometry">
            <mxPoint x="200" y="1670" as="sourcePoint" />
          </mxGeometry>
        </mxCell>
        <mxCell id="iWvtweeKXFTA9S-Jjv0f-22" value="Tela de receber" style="shape=offPageConnector;whiteSpace=wrap;html=1;" vertex="1" parent="1">
          <mxGeometry x="160" y="1700" width="80" height="80" as="geometry" />
        </mxCell>
        <mxCell id="iWvtweeKXFTA9S-Jjv0f-45" style="edgeStyle=orthogonalEdgeStyle;rounded=0;orthogonalLoop=1;jettySize=auto;html=1;exitX=0.5;exitY=1;exitDx=0;exitDy=0;entryX=0.5;entryY=0;entryDx=0;entryDy=0;" edge="1" parent="1" source="iWvtweeKXFTA9S-Jjv0f-44" target="iWvtweeKXFTA9S-Jjv0f-9">
          <mxGeometry relative="1" as="geometry" />
        </mxCell>
        <mxCell id="iWvtweeKXFTA9S-Jjv0f-44" value="Tela de receber" style="shape=offPageConnector;whiteSpace=wrap;html=1;" vertex="1" parent="1">
          <mxGeometry x="290" y="1850" width="80" height="80" as="geometry" />
        </mxCell>
        <mxCell id="iWvtweeKXFTA9S-Jjv0f-48" value="Tela de opções" style="shape=offPageConnector;whiteSpace=wrap;html=1;" vertex="1" parent="1">
          <mxGeometry x="290" y="2110" width="80" height="80" as="geometry" />
        </mxCell>
        <mxCell id="iWvtweeKXFTA9S-Jjv0f-54" value="ir a tela de receber" style="rounded=0;whiteSpace=wrap;html=1;" vertex="1" parent="1">
          <mxGeometry x="140" y="1590" width="120" height="60" as="geometry" />
        </mxCell>
        <mxCell id="iWvtweeKXFTA9S-Jjv0f-56" value="ir a tela de pago" style="rounded=0;whiteSpace=wrap;html=1;" vertex="1" parent="1">
          <mxGeometry x="350" y="1470" width="120" height="60" as="geometry" />
        </mxCell>
        <mxCell id="iWvtweeKXFTA9S-Jjv0f-57" value="Tela de pago" style="shape=offPageConnector;whiteSpace=wrap;html=1;" vertex="1" parent="1">
          <mxGeometry x="530" y="1470" width="80" height="80" as="geometry" />
        </mxCell>
        <mxCell id="iWvtweeKXFTA9S-Jjv0f-58" style="edgeStyle=orthogonalEdgeStyle;rounded=0;orthogonalLoop=1;jettySize=auto;html=1;entryX=-0.025;entryY=0.375;entryDx=0;entryDy=0;entryPerimeter=0;" edge="1" parent="1" source="iWvtweeKXFTA9S-Jjv0f-56" target="iWvtweeKXFTA9S-Jjv0f-57">
          <mxGeometry relative="1" as="geometry" />
        </mxCell>
        <mxCell id="iWvtweeKXFTA9S-Jjv0f-66" style="edgeStyle=orthogonalEdgeStyle;rounded=0;orthogonalLoop=1;jettySize=auto;html=1;exitX=0.5;exitY=0;exitDx=0;exitDy=0;entryX=0.5;entryY=1;entryDx=0;entryDy=0;" edge="1" parent="1" source="iWvtweeKXFTA9S-Jjv0f-60" target="iWvtweeKXFTA9S-Jjv0f-61">
          <mxGeometry relative="1" as="geometry" />
        </mxCell>
        <mxCell id="iWvtweeKXFTA9S-Jjv0f-60" value="ir a tela de me devendo" style="rounded=0;whiteSpace=wrap;html=1;" vertex="1" parent="1">
          <mxGeometry x="150" y="1320" width="120" height="60" as="geometry" />
        </mxCell>
        <mxCell id="iWvtweeKXFTA9S-Jjv0f-61" value="Tela de me devendo" style="shape=offPageConnector;whiteSpace=wrap;html=1;" vertex="1" parent="1">
          <mxGeometry x="170" y="1190" width="80" height="80" as="geometry" />
        </mxCell>
        <mxCell id="iWvtweeKXFTA9S-Jjv0f-65" style="edgeStyle=orthogonalEdgeStyle;rounded=0;orthogonalLoop=1;jettySize=auto;html=1;exitX=0.5;exitY=0;exitDx=0;exitDy=0;entryX=0.442;entryY=1.017;entryDx=0;entryDy=0;entryPerimeter=0;" edge="1" parent="1" source="iWvtweeKXFTA9S-Jjv0f-1" target="iWvtweeKXFTA9S-Jjv0f-60">
          <mxGeometry relative="1" as="geometry" />
        </mxCell>
        <mxCell id="iWvtweeKXFTA9S-Jjv0f-69" value="Nome:xxx&lt;div&gt;&lt;br&gt;&lt;/div&gt;" style="strokeWidth=2;html=1;shape=mxgraph.flowchart.display;whiteSpace=wrap;" vertex="1" parent="1">
          <mxGeometry x="700" y="1952.5" width="160" height="85" as="geometry" />
        </mxCell>
        <mxCell id="iWvtweeKXFTA9S-Jjv0f-71" value="&lt;div&gt;Local:xxx&lt;/div&gt;&lt;div&gt;&lt;br&gt;&lt;/div&gt;" style="strokeWidth=2;html=1;shape=mxgraph.flowchart.display;whiteSpace=wrap;rotation=0;" vertex="1" parent="1">
          <mxGeometry x="475" y="2110" width="140" height="90" as="geometry" />
        </mxCell>
        <mxCell id="iWvtweeKXFTA9S-Jjv0f-72" value="Valor:xxx" style="strokeWidth=2;html=1;shape=mxgraph.flowchart.display;whiteSpace=wrap;rotation=0;" vertex="1" parent="1">
          <mxGeometry x="465" y="1790" width="160" height="90" as="geometry" />
        </mxCell>
        <mxCell id="iWvtweeKXFTA9S-Jjv0f-73" style="edgeStyle=orthogonalEdgeStyle;rounded=0;orthogonalLoop=1;jettySize=auto;html=1;exitX=0.5;exitY=1;exitDx=0;exitDy=0;entryX=0.5;entryY=0;entryDx=0;entryDy=0;entryPerimeter=0;" edge="1" parent="1" source="iWvtweeKXFTA9S-Jjv0f-15" target="iWvtweeKXFTA9S-Jjv0f-71">
          <mxGeometry relative="1" as="geometry" />
        </mxCell>
        <mxCell id="iWvtweeKXFTA9S-Jjv0f-75" style="edgeStyle=orthogonalEdgeStyle;rounded=0;orthogonalLoop=1;jettySize=auto;html=1;exitX=1;exitY=0.5;exitDx=0;exitDy=0;entryX=0;entryY=0.5;entryDx=0;entryDy=0;entryPerimeter=0;" edge="1" parent="1" source="iWvtweeKXFTA9S-Jjv0f-15" target="iWvtweeKXFTA9S-Jjv0f-69">
          <mxGeometry relative="1" as="geometry" />
        </mxCell>
        <mxCell id="iWvtweeKXFTA9S-Jjv0f-79" style="edgeStyle=orthogonalEdgeStyle;rounded=0;orthogonalLoop=1;jettySize=auto;html=1;exitX=0.5;exitY=1;exitDx=0;exitDy=0;entryX=0.5;entryY=0;entryDx=0;entryDy=0;" edge="1" parent="1" source="iWvtweeKXFTA9S-Jjv0f-77" target="iWvtweeKXFTA9S-Jjv0f-78">
          <mxGeometry relative="1" as="geometry" />
        </mxCell>
        <mxCell id="iWvtweeKXFTA9S-Jjv0f-77" value="inicio" style="ellipse;whiteSpace=wrap;html=1;" vertex="1" parent="1">
          <mxGeometry x="250" y="-520" width="120" height="80" as="geometry" />
        </mxCell>
        <mxCell id="iWvtweeKXFTA9S-Jjv0f-81" style="edgeStyle=orthogonalEdgeStyle;rounded=0;orthogonalLoop=1;jettySize=auto;html=1;exitX=1;exitY=0.5;exitDx=0;exitDy=0;entryX=0;entryY=0.75;entryDx=0;entryDy=0;" edge="1" parent="1" source="iWvtweeKXFTA9S-Jjv0f-78" target="iWvtweeKXFTA9S-Jjv0f-80">
          <mxGeometry relative="1" as="geometry" />
        </mxCell>
        <mxCell id="iWvtweeKXFTA9S-Jjv0f-100" value="não" style="edgeLabel;html=1;align=center;verticalAlign=middle;resizable=0;points=[];" vertex="1" connectable="0" parent="iWvtweeKXFTA9S-Jjv0f-81">
          <mxGeometry x="0.04" relative="1" as="geometry">
            <mxPoint as="offset" />
          </mxGeometry>
        </mxCell>
        <mxCell id="iWvtweeKXFTA9S-Jjv0f-86" value="" style="edgeStyle=orthogonalEdgeStyle;rounded=0;orthogonalLoop=1;jettySize=auto;html=1;" edge="1" parent="1" source="iWvtweeKXFTA9S-Jjv0f-78" target="iWvtweeKXFTA9S-Jjv0f-85">
          <mxGeometry relative="1" as="geometry" />
        </mxCell>
        <mxCell id="iWvtweeKXFTA9S-Jjv0f-102" value="sim" style="edgeLabel;html=1;align=center;verticalAlign=middle;resizable=0;points=[];" vertex="1" connectable="0" parent="iWvtweeKXFTA9S-Jjv0f-86">
          <mxGeometry x="-0.2286" y="5" relative="1" as="geometry">
            <mxPoint as="offset" />
          </mxGeometry>
        </mxCell>
        <mxCell id="iWvtweeKXFTA9S-Jjv0f-78" value="Já tem login?" style="rhombus;whiteSpace=wrap;html=1;" vertex="1" parent="1">
          <mxGeometry x="250" y="-380" width="120" height="80" as="geometry" />
        </mxCell>
        <mxCell id="iWvtweeKXFTA9S-Jjv0f-80" value="email:xxx&lt;div&gt;senha:xxx&lt;/div&gt;" style="shape=manualInput;whiteSpace=wrap;html=1;" vertex="1" parent="1">
          <mxGeometry x="440" y="-420" width="100" height="100" as="geometry" />
        </mxCell>
        <mxCell id="iWvtweeKXFTA9S-Jjv0f-96" value="" style="edgeStyle=orthogonalEdgeStyle;rounded=0;orthogonalLoop=1;jettySize=auto;html=1;" edge="1" parent="1" source="iWvtweeKXFTA9S-Jjv0f-84" target="iWvtweeKXFTA9S-Jjv0f-95">
          <mxGeometry relative="1" as="geometry" />
        </mxCell>
        <mxCell id="iWvtweeKXFTA9S-Jjv0f-84" value="CDASTRO&lt;div&gt;email:xxx&lt;div&gt;senha:xxx&lt;/div&gt;&lt;/div&gt;" style="shape=manualInput;whiteSpace=wrap;html=1;" vertex="1" parent="1">
          <mxGeometry x="440" y="-420" width="100" height="100" as="geometry" />
        </mxCell>
        <mxCell id="iWvtweeKXFTA9S-Jjv0f-88" value="" style="edgeStyle=orthogonalEdgeStyle;rounded=0;orthogonalLoop=1;jettySize=auto;html=1;" edge="1" parent="1" source="iWvtweeKXFTA9S-Jjv0f-85" target="iWvtweeKXFTA9S-Jjv0f-87">
          <mxGeometry relative="1" as="geometry" />
        </mxCell>
        <mxCell id="iWvtweeKXFTA9S-Jjv0f-85" value="LOGIN&lt;div&gt;email:xxx&lt;div&gt;senha:xxx&lt;/div&gt;&lt;/div&gt;" style="shape=manualInput;whiteSpace=wrap;html=1;" vertex="1" parent="1">
          <mxGeometry x="260" y="-160" width="100" height="100" as="geometry" />
        </mxCell>
        <mxCell id="iWvtweeKXFTA9S-Jjv0f-90" value="" style="edgeStyle=orthogonalEdgeStyle;rounded=0;orthogonalLoop=1;jettySize=auto;html=1;" edge="1" parent="1" source="iWvtweeKXFTA9S-Jjv0f-87" target="iWvtweeKXFTA9S-Jjv0f-89">
          <mxGeometry relative="1" as="geometry" />
        </mxCell>
        <mxCell id="iWvtweeKXFTA9S-Jjv0f-103" value="não" style="edgeLabel;html=1;align=center;verticalAlign=middle;resizable=0;points=[];" vertex="1" connectable="0" parent="iWvtweeKXFTA9S-Jjv0f-90">
          <mxGeometry x="-0.1" relative="1" as="geometry">
            <mxPoint as="offset" />
          </mxGeometry>
        </mxCell>
        <mxCell id="iWvtweeKXFTA9S-Jjv0f-87" value="estão certos?" style="rhombus;whiteSpace=wrap;html=1;" vertex="1" parent="1">
          <mxGeometry x="414" y="-150" width="80" height="80" as="geometry" />
        </mxCell>
        <mxCell id="iWvtweeKXFTA9S-Jjv0f-93" value="" style="edgeStyle=orthogonalEdgeStyle;rounded=0;orthogonalLoop=1;jettySize=auto;html=1;" edge="1" parent="1" source="iWvtweeKXFTA9S-Jjv0f-89" target="iWvtweeKXFTA9S-Jjv0f-92">
          <mxGeometry relative="1" as="geometry" />
        </mxCell>
        <mxCell id="iWvtweeKXFTA9S-Jjv0f-89" value="redefinir por email" style="whiteSpace=wrap;html=1;" vertex="1" parent="1">
          <mxGeometry x="590" y="-140" width="120" height="60" as="geometry" />
        </mxCell>
        <mxCell id="iWvtweeKXFTA9S-Jjv0f-106" value="" style="edgeStyle=orthogonalEdgeStyle;rounded=0;orthogonalLoop=1;jettySize=auto;html=1;entryX=0.5;entryY=0;entryDx=0;entryDy=0;" edge="1" parent="1" source="iWvtweeKXFTA9S-Jjv0f-92" target="iWvtweeKXFTA9S-Jjv0f-89">
          <mxGeometry relative="1" as="geometry">
            <mxPoint x="620" y="-210" as="targetPoint" />
            <Array as="points">
              <mxPoint x="870" y="-210" />
              <mxPoint x="650" y="-210" />
            </Array>
          </mxGeometry>
        </mxCell>
        <mxCell id="iWvtweeKXFTA9S-Jjv0f-108" value="não" style="edgeLabel;html=1;align=center;verticalAlign=middle;resizable=0;points=[];" vertex="1" connectable="0" parent="iWvtweeKXFTA9S-Jjv0f-106">
          <mxGeometry x="-0.0824" y="-2" relative="1" as="geometry">
            <mxPoint as="offset" />
          </mxGeometry>
        </mxCell>
        <mxCell id="iWvtweeKXFTA9S-Jjv0f-92" value="agora estão certos agora?" style="rhombus;whiteSpace=wrap;html=1;" vertex="1" parent="1">
          <mxGeometry x="810" y="-160" width="120" height="100" as="geometry" />
        </mxCell>
        <mxCell id="iWvtweeKXFTA9S-Jjv0f-97" style="edgeStyle=orthogonalEdgeStyle;rounded=0;orthogonalLoop=1;jettySize=auto;html=1;exitX=0;exitY=0;exitDx=0;exitDy=0;entryX=0.5;entryY=0;entryDx=0;entryDy=0;" edge="1" parent="1" source="iWvtweeKXFTA9S-Jjv0f-95" target="iWvtweeKXFTA9S-Jjv0f-84">
          <mxGeometry relative="1" as="geometry">
            <mxPoint x="480" y="-440" as="targetPoint" />
            <Array as="points">
              <mxPoint x="650" y="-480" />
              <mxPoint x="490" y="-480" />
            </Array>
          </mxGeometry>
        </mxCell>
        <mxCell id="iWvtweeKXFTA9S-Jjv0f-99" value="não" style="edgeLabel;html=1;align=center;verticalAlign=middle;resizable=0;points=[];" vertex="1" connectable="0" parent="iWvtweeKXFTA9S-Jjv0f-97">
          <mxGeometry x="0.0581" y="1" relative="1" as="geometry">
            <mxPoint as="offset" />
          </mxGeometry>
        </mxCell>
        <mxCell id="iWvtweeKXFTA9S-Jjv0f-98" style="edgeStyle=orthogonalEdgeStyle;rounded=0;orthogonalLoop=1;jettySize=auto;html=1;exitX=0.5;exitY=1;exitDx=0;exitDy=0;entryX=1;entryY=1;entryDx=0;entryDy=0;" edge="1" parent="1" source="iWvtweeKXFTA9S-Jjv0f-95" target="iWvtweeKXFTA9S-Jjv0f-78">
          <mxGeometry relative="1" as="geometry">
            <mxPoint x="350" y="-220" as="targetPoint" />
            <Array as="points">
              <mxPoint x="670" y="-250" />
              <mxPoint x="340" y="-250" />
            </Array>
          </mxGeometry>
        </mxCell>
        <mxCell id="iWvtweeKXFTA9S-Jjv0f-101" value="sim" style="edgeLabel;html=1;align=center;verticalAlign=middle;resizable=0;points=[];" vertex="1" connectable="0" parent="iWvtweeKXFTA9S-Jjv0f-98">
          <mxGeometry x="-0.0875" y="2" relative="1" as="geometry">
            <mxPoint as="offset" />
          </mxGeometry>
        </mxCell>
        <mxCell id="iWvtweeKXFTA9S-Jjv0f-95" value="são validos?" style="rhombus;whiteSpace=wrap;html=1;" vertex="1" parent="1">
          <mxGeometry x="630" y="-410" width="80" height="80" as="geometry" />
        </mxCell>
      </root>
    </mxGraphModel>
  </diagram>
</mxfile>
